<?xml version="1.0" encoding="UTF-8"?>
<!DOCTYPE svg PUBLIC "-//W3C//DTD SVG 1.1//EN" "http://www.w3.org/Graphics/SVG/1.1/DTD/svg11.dtd">
<svg xmlns="http://www.w3.org/2000/svg" version="1.1" width="1080px" height="260px" style="shape-rendering:geometricPrecision; text-rendering:geometricPrecision; image-rendering:optimizeQuality; fill-rule:evenodd; clip-rule:evenodd" xmlns:xlink="http://www.w3.org/1999/xlink">
<g><path style="opacity:0.90" fill="#ff7e00" d="M 287.5,10.5 C 288.043,10.56 288.376,10.8933 288.5,11.5C 249.522,42.6437 210.689,73.977 172,105.5C 180.59,155.119 188.924,204.786 197,254.5C 152.587,192.009 108.421,129.342 64.5,66.5C 138.901,47.6498 213.235,28.9832 287.5,10.5 Z"/></g>
<g><path style="opacity:0.951" fill="#fefffe" d="M 596.5,54.5 C 604.5,54.5 612.5,54.5 620.5,54.5C 620.5,106.167 620.5,157.833 620.5,209.5C 612.833,209.5 605.167,209.5 597.5,209.5C 597.666,205.486 597.499,201.486 597,197.5C 583.009,210.792 566.509,215.292 547.5,211C 520.276,202.08 505.943,183.247 504.5,154.5C 508.072,114.091 530.072,94.924 570.5,97C 580.639,98.485 589.139,102.985 596,110.5C 596.5,91.8363 596.667,73.1696 596.5,54.5 Z M 558.5,118.5 C 577.043,117.546 589.21,125.879 595,143.5C 599.717,169.583 589.217,185.25 563.5,190.5C 546.167,189.334 535.333,180.334 531,163.5C 527.023,140.074 536.189,125.074 558.5,118.5 Z"/></g>
<g><path style="opacity:0.90" fill="#fefffe" d="M 859.5,54.5 C 865.203,54.3748 870.87,54.7081 876.5,55.5C 876.5,62.5 876.5,69.5 876.5,76.5C 868.819,75.1686 861.486,76.3353 854.5,80C 850.018,85.3049 848.351,91.4716 849.5,98.5C 857.833,98.5 866.167,98.5 874.5,98.5C 874.5,105.833 874.5,113.167 874.5,120.5C 866.167,120.5 857.833,120.5 849.5,120.5C 849.5,150.167 849.5,179.833 849.5,209.5C 841.5,209.5 833.5,209.5 825.5,209.5C 825.5,179.833 825.5,150.167 825.5,120.5C 818.833,120.5 812.167,120.5 805.5,120.5C 805.5,113.167 805.5,105.833 805.5,98.5C 812.167,98.5 818.833,98.5 825.5,98.5C 823.851,73.5113 835.184,58.8446 859.5,54.5 Z"/></g>
<g><path style="opacity:0.906" fill="#fefffe" d="M 645.5,57.5 C 653.833,57.5 662.167,57.5 670.5,57.5C 670.5,66.5 670.5,75.5 670.5,84.5C 662.167,84.5 653.833,84.5 645.5,84.5C 645.5,75.5 645.5,66.5 645.5,57.5 Z"/></g>
<g><path style="opacity:0.953" fill="#fefffe" d="M 297.5,96.5 C 329.37,93.9094 350.537,107.576 361,137.5C 367.033,163.229 360.2,184.729 340.5,202C 319.338,215.523 298.004,215.857 276.5,203C 275,201.5 273.5,200 272,198.5C 271.5,215.83 271.333,233.163 271.5,250.5C 263.5,250.5 255.5,250.5 247.5,250.5C 247.5,199.833 247.5,149.167 247.5,98.5C 255.167,98.5 262.833,98.5 270.5,98.5C 270.334,102.846 270.501,107.179 271,111.5C 278.218,103.479 287.051,98.4789 297.5,96.5 Z M 299.5,118.5 C 323.092,118.588 336.092,130.421 338.5,154C 335.518,181.628 320.518,192.961 293.5,188C 279.398,181.147 272.065,169.813 271.5,154C 272.562,135.457 281.895,123.624 299.5,118.5 Z"/></g>
<g><path style="opacity:0.90" fill="#fefffe" d="M 424.5,96.5 C 457.701,93.164 478.535,107.497 487,139.5C 487.812,146.747 487.646,153.914 486.5,161C 459.161,161.167 431.827,161.667 404.5,162.5C 410.534,185.705 425.201,194.539 448.5,189C 455.382,185.657 460.882,180.824 465,174.5C 471.58,177.873 478.08,181.373 484.5,185C 471.898,206.006 453.232,215.006 428.5,212C 402.665,207.832 386.832,192.998 381,167.5C 375.979,141.07 384.146,119.904 405.5,104C 411.604,100.583 417.937,98.0833 424.5,96.5 Z M 429.5,116.5 C 448.191,115.534 459.191,124.2 462.5,142.5C 443.5,142.5 424.5,142.5 405.5,142.5C 408.358,128.979 416.358,120.313 429.5,116.5 Z"/></g>
<g><path style="opacity:0.953" fill="#fefffe" d="M 733.5,96.5 C 752.26,93.5862 768.093,98.9195 781,112.5C 784.09,116.682 786.09,121.349 787,126.5C 787.5,154.165 787.667,181.831 787.5,209.5C 779.833,209.5 772.167,209.5 764.5,209.5C 764.665,206.15 764.498,202.817 764,199.5C 748.02,212.525 730.186,215.692 710.5,209C 694.043,200.654 688.21,187.487 693,169.5C 695.601,162.791 699.768,157.291 705.5,153C 710.834,149.832 716.501,147.499 722.5,146C 736.109,143.398 749.776,141.232 763.5,139.5C 764.988,128.307 760.322,121.14 749.5,118C 734.432,115.617 723.266,121.117 716,134.5C 709.667,131.167 703.333,127.833 697,124.5C 701.293,113.868 708.793,106.035 719.5,101C 724.184,99.1702 728.851,97.6702 733.5,96.5 Z M 759.5,158.5 C 760.833,158.5 762.167,158.5 763.5,158.5C 764.298,179.372 754.298,191.038 733.5,193.5C 719.315,192.103 714.482,184.77 719,171.5C 722.154,167.339 726.321,164.839 731.5,164C 741.03,162.471 750.364,160.638 759.5,158.5 Z"/></g>
<g><path style="opacity:0.917" fill="#fefffe" d="M 645.5,98.5 C 653.833,98.5 662.167,98.5 670.5,98.5C 670.5,135.5 670.5,172.5 670.5,209.5C 662.167,209.5 653.833,209.5 645.5,209.5C 645.5,172.5 645.5,135.5 645.5,98.5 Z"/></g>
<g><path style="opacity:0.946" fill="#fefffe" d="M 883.5,98.5 C 892.192,98.1686 900.859,98.502 909.5,99.5C 919.765,125.794 929.931,152.127 940,178.5C 950.196,152.245 960.196,125.911 970,99.5C 978.774,98.184 987.607,98.184 996.5,99.5C 979.902,140.794 963.402,182.127 947,223.5C 936.267,249.783 917.101,259.45 889.5,252.5C 889.5,245.5 889.5,238.5 889.5,231.5C 898.014,233.28 906.347,232.78 914.5,230C 920.691,224.476 925.024,217.643 927.5,209.5C 912.827,172.476 898.16,135.476 883.5,98.5 Z"/></g>
</svg>
